<svg xmlns="http://www.w3.org/2000/svg" width="14.326530612244891" height="16.83673469387756" style=""><rect id="backgroundrect" width="100%" height="100%" x="0" y="0" fill="none" stroke="none" class="" style=""/>&gt;<g class="currentLayer" style=""><title>Layer 1</title><path d="M4.772789579118475,7.612244991972669 H3.1818597747201065 v1.6734693799057365 h1.5909298043983706 v-1.6734693799057365 zm3.181859608796741,0 h-1.5909298043983706 v1.6734693799057365 h1.5909298043983706 v-1.6734693799057365 zm3.181859608796741,0 h-1.5909298043983706 v1.6734693799057365 h1.5909298043983706 v-1.6734693799057365 zm1.5909298043983706,-5.857142829670075 h-0.7954649021991864 V0.08163278239685923 h-1.5909298043983706 v1.6734693799057365 H3.977324676919292 V0.08163278239685923 H2.386394872520921 v1.6734693799057365 H1.5909299703217368 c-0.8829660414410958,0 -1.5829751553763796,0.7530612209575813 -1.5829751553763796,1.6734693799057365 L1.659233654915937e-7,15.142857201548477 a1.5909298043983706,1.6734693799057365 0 0 0 1.5909298043983706,1.6734693799057365 h11.136508630788592 c0.8750113924191044,0 1.5909298043983706,-0.7530612209575813 1.5909298043983706,-1.6734693799057365 V3.4285715422083314 c0,-0.9204081589481552 -0.7159184119792669,-1.6734693799057365 -1.5909298043983706,-1.6734693799057365 zm0,13.387755039245887 H1.5909299703217368 V5.9387756120669355 h11.136508630788592 v9.204081589481545 z" id="svg_1" class=""/></g></svg>